<svg width="10" height="10" xmlns="http://www.w3.org/2000/svg"><g fill="none" fill-rule="evenodd"><path d="M0 0h10v10H0z"/><path d="M9.73 3.611c-.066-.242-.272-.25-.272-.25l-3-.172L5.311.153C5.308.14 5.236 0 5.033 0c-.197 0-.276.133-.282.153L3.618 3.176l-3.11.188c-.17.013-.242.177-.254.235-.03.147.03.26.072.304l2.371 2.08-.748 3.17s-.043.16.148.288c.178.119.337.022.337.022L5.04 7.767l2.602 1.695s.166.1.342-.04c.179-.143.114-.34.114-.34L7.357 5.96 9.66 3.97s.13-.13.07-.359" fill="#FFAC2D"/></g></svg>